# File created by Blade
# Date/Time:  Tue Jan 27 18:12:51 2015
#---------------------------------------------------------
:version 1.10
:name HOM
:units
  mass 1.0
  length 1.000000
  angle deg
:documentation
     Acclaim Skeleton File
:root
   axis xyz
   order TX TY TZ RX RY RZ
   position 0.000000 0.000000 0.000000
   orientation 0 0 0
:bonedata
   begin
      id 1
      name Spine_dum
      direction 0.000000 1.000000 0.000000
      length 5.195262
      axis 0.0 0.0 0.0 xyz
   end
   begin
      id 2
      name LeftUpLeg_dum
      direction 1.000000 0.000000 0.000000
      length 3.351363
      axis 0.0 0.0 0.0 xyz
   end
   begin
      id 3
      name RightUpLeg_dum
      direction -1.000000 0.000000 0.000000
      length 3.351363
      axis 0.0 0.0 0.0 xyz
   end
   begin
      id 4
      name Spine
      direction 0.000000 1.000000 0.000000
      length 0.000000
      axis 0.0 0.0 0.0 xyz
      dof rx ry rz
   end
   begin
      id 5
      name Spine_dum1
      direction 0.000000 1.000000 0.000000
      length 15.653875
      axis 0.0 0.0 0.0 xyz
   end
   begin
      id 6
      name Spine_dum2
      direction 0.000000 1.000000 0.000000
      length 10.329768
      axis 0.0 0.0 0.0 xyz
   end
   begin
      id 7
      name Spine_dum3
      direction 0.000000 1.000000 0.000000
      length 10.329768
      axis 0.0 0.0 0.0 xyz
   end
   begin
      id 8
      name Head
      direction 0.000000 1.000000 0.000000
      length 4.527550
      axis 0.0 0.0 0.0 xyz
      dof rx ry rz
   end
   begin
      id 9
      name LeftShoulder
      direction 1.000000 0.000000 0.000000
      length 6.996006
      axis 0.0 0.0 -90.0 xyz
      dof rx ry rz
   end
   begin
      id 10
      name LeftArm
      direction 1.000000 0.000000 0.000000
      length 10.209302
      axis 0.0 0.0 -90.0 xyz
      dof rx ry rz
   end
   begin
      id 11
      name LeftForeArm
      direction 1.000000 0.000000 0.000000
      length 8.563163
      axis 0.0 0.0 -90.0 xyz
      dof ry rz rx
   end
   begin
      id 12
      name LeftHand
      direction 0.000000 0.000000 0.000000
      length 0.000000
      axis 0.0 0.0 -90.0 xyz
      dof rx ry rz
   end
   begin
      id 13
      name LeftHand_dum1
      direction 0.000000 0.000000 0.000000
      length 0.000000
      axis 0.0 0.0 -90.0 xyz
   end
   begin
      id 14
      name LeftHand_dum2
      direction 1.000000 0.000000 0.000000
      length 3.937000
      axis 0.0 0.0 -90.0 xyz
   end
   begin
      id 15
      name LeftHandThumb1
      direction 0.000000 0.000000 1.000000
      length 3.937000
      axis 0.0 0.0 -90.0 xyz
      dof rx rz ry
   end
   begin
      id 16
      name RightShoulder
      direction -1.000000 0.000000 0.000000
      length 6.996006
      axis 0.0 0.0 90.0 xyz
      dof rx ry rz
   end
   begin
      id 17
      name RightArm
      direction -1.000000 0.000000 0.000000
      length 10.209302
      axis 0.0 0.0 90.0 xyz
      dof rx ry rz
   end
   begin
      id 18
      name RightForeArm
      direction -1.000000 0.000000 0.000000
      length 8.563163
      axis 0.0 0.0 90.0 xyz
      dof ry rz rx
   end
   begin
      id 19
      name RightHand
      direction 0.000000 0.000000 0.000000
      length 0.000000
      axis 0.0 0.0 90.0 xyz
      dof rx ry rz
   end
   begin
      id 20
      name RightHand_dum1
      direction 0.000000 0.000000 0.000000
      length 0.000000
      axis 0.0 0.0 90.0 xyz
   end
   begin
      id 21
      name RightHand_dum2
      direction -1.000000 0.000000 0.000000
      length 3.937000
      axis 0.0 0.0 90.0 xyz
   end
   begin
      id 22
      name RightHandThumb1
      direction 0.000000 0.000000 1.000000
      length 3.937000
      axis 0.0 0.0 90.0 xyz
      dof rx rz ry
   end
   begin
      id 23
      name LeftUpLeg
      direction 0.000000 -1.000000 0.000000
      length 16.346831
      axis 0.0 0.0 0.0 xyz
      dof rx ry rz
   end
   begin
      id 24
      name LeftLeg
      direction 0.000000 -1.000000 0.000000
      length 13.959795
      axis 0.0 0.0 0.0 xyz
      dof rx ry rz
   end
   begin
      id 25
      name LeftFoot
      direction 0.000000 -0.258819 0.965926
      length 5.165550
      axis 15.0 0.0 0.0 xyz
      dof rx ry rz
   end
   begin
      id 26
      name LeftToeBase
      direction 0.000000 0.000000 1.000000
      length 2.952750
      axis 0.0 0.0 0.0 xyz
      dof rx ry rz
   end
   begin
      id 27
      name RightUpLeg
      direction 0.000000 -1.000000 0.000000
      length 16.346831
      axis 0.0 0.0 0.0 xyz
      dof rx ry rz
   end
   begin
      id 28
      name RightLeg
      direction 0.000000 -1.000000 0.000000
      length 13.959795
      axis 0.0 0.0 0.0 xyz
      dof rx ry rz
   end
   begin
      id 29
      name RightFoot
      direction 0.000000 -0.258819 0.965926
      length 5.165550
      axis 15.0 0.0 0.0 xyz
      dof rx ry rz
   end
   begin
      id 30
      name RightToeBase
      direction 0.000000 0.000000 1.000000
      length 2.952750
      axis 0.0 0.0 0.0 xyz
      dof rx ry rz
   end
:hierarchy
   begin
      root Spine_dum LeftUpLeg_dum RightUpLeg_dum
      Spine_dum Spine
      LeftUpLeg_dum LeftUpLeg
      RightUpLeg_dum RightUpLeg
      Spine Spine_dum1 Spine_dum2 Spine_dum3
      Spine_dum1 Head
      Spine_dum2 LeftShoulder
      Spine_dum3 RightShoulder
      LeftShoulder LeftArm
      LeftArm LeftForeArm
      LeftForeArm LeftHand
      LeftHand LeftHand_dum1 LeftHand_dum2
      LeftHand_dum1 LeftHandThumb1
      RightShoulder RightArm
      RightArm RightForeArm
      RightForeArm RightHand
      RightHand RightHand_dum1 RightHand_dum2
      RightHand_dum1 RightHandThumb1
      LeftUpLeg LeftLeg
      LeftLeg LeftFoot
      LeftFoot LeftToeBase
      RightUpLeg RightLeg
      RightLeg RightFoot
      RightFoot RightToeBase
   end

# File created by Blade
# Date/Time:  Tue Jan 27 18:12:42 2015
# Frame Rate: 120.000 fps
#------------------------------------------------------
:FULLY-SPECIFIED
:DEGREES
789
root -1.323455 31.784877 -6.405666 4.940852 16.944021 4.943703
Spine -7.361785 4.365317 -1.919321
Head 11.131424 -4.379487 -0.252862
LeftShoulder -8.973492 16.440157 4.325055
LeftArm 27.663334 42.190093 -67.558276
LeftForeArm -1.084314 -0.000000 14.623378
LeftHand -10.614974 -0.000000 -5.167337
LeftHandThumb1 -26.253704 0.000000 33.147579
RightShoulder 11.820579 26.579060 -13.827596
RightArm 25.418716 -6.990898 111.661589
RightForeArm 28.891118 0.000000 99.277978
RightHand -3.806464 -0.000000 12.666725
RightHandThumb1 -24.326973 -0.000000 -32.862282
LeftUpLeg -1.331590 -7.082259 -1.905974
LeftLeg 2.082514 -0.000000 -0.000000
LeftFoot -16.294954 13.151594 -23.988629
LeftToeBase 8.514486 -0.000000 -0.000000
RightUpLeg 4.853202 -10.455402 -4.834869
RightLeg -3.600826 -0.000000 0.000000
RightFoot -17.779196 -17.280651 10.780292
RightToeBase 5.471061 -0.000000 -0.000000
790
root -1.330715 31.785832 -6.412123 4.965294 16.920226 4.926460
Spine -7.356703 4.285823 -1.894190
Head 11.066629 -4.445359 -0.219863
LeftShoulder -8.906888 16.421433 4.366878
LeftArm 27.536877 42.178668 -67.662063
LeftForeArm -1.165055 0.000000 14.616976
LeftHand -10.610059 -0.000000 -5.322379
LeftHandThumb1 -26.253704 0.000000 33.147579
RightShoulder 11.803056 26.647185 -13.884423
RightArm 25.697079 -7.910634 111.381218
RightForeArm 29.266532 -0.000000 98.639018
RightHand -4.058002 0.000000 12.391127
RightHandThumb1 -24.326973 -0.000000 -32.862282
LeftUpLeg -1.375745 -7.035922 -1.875693
LeftLeg 2.083521 -0.000000 -0.000000
LeftFoot -16.272938 13.119494 -24.006960
LeftToeBase 8.529714 -0.000000 -0.000000
RightUpLeg 4.796205 -10.375137 -4.798669
RightLeg -3.585100 -0.000000 0.000000
RightFoot -17.781093 -17.337453 10.806169
RightToeBase 5.500173 -0.000000 -0.000000
791
root -1.330293 31.786110 -6.414274 4.975741 16.894920 4.929340
Spine -7.345031 4.192722 -1.851196
Head 11.008342 -4.375110 -0.191466
LeftShoulder -8.887987 16.451321 4.368703
LeftArm 27.490887 42.201199 -67.694094
LeftForeArm -1.256447 -0.000000 14.590114
LeftHand -10.645473 -0.000000 -5.483852
LeftHandThumb1 -26.253704 0.000000 33.147579
RightShoulder 11.809318 26.720755 -14.012439
RightArm 25.985702 -8.942516 111.067704
RightForeArm 29.573998 -0.000000 97.982901
RightHand -4.226815 0.000000 12.515129
RightHandThumb1 -24.326973 -0.000000 -32.862282
LeftUpLeg -1.374932 -7.032150 -1.882770
LeftLeg 2.058599 -0.000000 -0.000000
LeftFoot -16.268346 13.154224 -23.995855
LeftToeBase 8.539416 -0.000000 -0.000000
RightUpLeg 4.783354 -10.348546 -4.804529
RightLeg -3.597115 -0.000000 0.000000
RightFoot -17.764957 -17.330629 10.796885
RightToeBase 5.451129 -0.000000 -0.000000
792
root -1.334323 31.787016 -6.418378 4.996244 16.867084 4.918649
Spine -7.334942 4.095943 -1.809972
Head 10.933678 -4.383303 -0.194832
LeftShoulder -8.859204 16.473595 4.384041
LeftArm 27.446091 42.217869 -67.728107
LeftForeArm -1.371586 -0.000000 14.539726
LeftHand -10.680730 -0.000000 -5.509198
LeftHandThumb1 -26.253704 0.000000 33.147579
RightShoulder 11.768176 26.820442 -14.114328
RightArm 26.348932 -10.149084 110.647677
RightForeArm 29.836570 -0.000000 97.250874
RightHand -4.296711 -0.000000 12.353870
RightHandThumb1 -24.326973 -0.000000 -32.862282
LeftUpLeg -1.404967 -6.989417 -1.866923
LeftLeg 2.052890 -0.000000 -0.000000
LeftFoot -16.250663 13.160918 -23.985057
LeftToeBase 8.522671 -0.000000 -0.000000
RightUpLeg 4.739978 -10.308998 -4.785364
RightLeg -3.589752 -0.000000 0.000000
RightFoot -17.755358 -17.329216 10.816066
RightToeBase 5.435983 -0.000000 -0.000000
793
root -1.339231 31.787955 -6.421786 5.016948 16.835665 4.914035
Spine -7.326482 3.991348 -1.791069
Head 10.858399 -4.489621 -0.225580
LeftShoulder -8.809601 16.501445 4.427574
LeftArm 27.389343 42.228106 -67.786199
LeftForeArm -1.562992 -0.000000 14.464528
LeftHand -10.524038 -0.000000 -5.760847
LeftHandThumb1 -26.253704 0.000000 33.147579
RightShoulder 11.713507 26.858700 -14.232699
RightArm 26.789524 -11.459407 110.151444
RightForeArm 30.207254 0.000000 96.566920
RightHand -4.402208 -0.000000 12.282044
RightHandThumb1 -24.326973 -0.000000 -32.862282
LeftUpLeg -1.427087 -6.978646 -1.854200
LeftLeg 2.040485 -0.000000 -0.000000
LeftFoot -16.236309 13.171371 -24.009315
LeftToeBase 8.496532 -0.000000 -0.000000
RightUpLeg 4.703155 -10.261199 -4.769666
RightLeg -3.593086 -0.000000 0.000000
RightFoot -17.733137 -17.367122 10.767115
RightToeBase 5.435340 -0.000000 -0.000000
794
root -1.343083 31.789009 -6.426162 5.038899 16.798254 4.906424
Spine -7.310764 3.896495 -1.748262
Head 10.776537 -4.535047 -0.246229
LeftShoulder -8.750661 16.529570 4.450437
LeftArm 27.306770 42.198680 -67.859313
LeftForeArm -1.645587 0.000000 14.417550
LeftHand -10.598615 -0.000000 -5.394884
LeftHandThumb1 -26.253704 0.000000 33.147579
RightShoulder 11.637819 26.877233 -14.411888
RightArm 27.344204 -12.935733 109.560538
RightForeArm 30.443797 -0.000000 95.832777
RightHand -4.502698 -0.000000 12.168928
RightHandThumb1 -24.326973 -0.000000 -32.862282
LeftUpLeg -1.456158 -6.932543 -1.844692
LeftLeg 2.034205 -0.000000 -0.000000
LeftFoot -16.212230 13.186959 -23.969575
LeftToeBase 8.478289 -0.000000 -0.000000
RightUpLeg 4.654524 -10.210919 -4.754441
RightLeg -3.576500 -0.000000 0.000000
RightFoot -17.731640 -17.357680 10.789877
RightToeBase 5.421904 -0.000000 -0.000000
795
root -1.347487 31.789189 -6.430762 5.061161 16.747193 4.887360
Spine -7.299432 3.795761 -1.689446
Head 10.692415 -4.524256 -0.264372
LeftShoulder -8.719384 16.539761 4.473447
LeftArm 27.215643 42.185186 -67.943371
LeftForeArm -1.779233 -0.000000 14.344905
LeftHand -10.582368 0.000000 -5.418213
LeftHandThumb1 -26.253704 0.000000 33.147579
RightShoulder 11.599297 26.993053 -14.595630
RightArm 27.860187 -14.452771 108.917893
RightForeArm 30.556969 -0.000000 95.137857
RightHand -4.717175 -0.000000 12.149901
RightHandThumb1 -24.326973 -0.000000 -32.862282
LeftUpLeg -1.481929 -6.899730 -1.822359
LeftLeg 2.016999 -0.000000 -0.000000
LeftFoot -16.225757 13.198628 -24.020106
LeftToeBase 8.489760 -0.000000 -0.000000
RightUpLeg 4.601174 -10.168607 -4.728484
RightLeg -3.567507 -0.000000 0.000000
RightFoot -17.721280 -17.346936 10.785822
RightToeBase 5.421076 -0.000000 -0.000000
796
root -1.351603 31.790866 -6.433161 5.076020 16.698701 4.873185
Spine -7.267170 3.685234 -1.630157
Head 10.588175 -4.569754 -0.305704
LeftShoulder -8.742622 16.524589 4.472818
LeftArm 27.179380 42.260632 -67.943551
LeftForeArm -2.019500 -0.000000 14.262199
LeftHand -10.433510 0.000000 -5.128550
LeftHandThumb1 -26.253704 0.000000 33.147579
RightShoulder 11.442495 26.886554 -14.840015
RightArm 28.696575 -16.209169 108.149247
RightForeArm 30.572386 0.000000 94.369215
RightHand -4.912518 0.000000 12.090454
RightHandThumb1 -24.326973 -0.000000 -32.862282
LeftUpLeg -1.498172 -6.881129 -1.802896
LeftLeg 2.002258 -0.000000 -0.000000
LeftFoot -16.228241 13.223286 -24.039904
LeftToeBase 8.533920 -0.000000 -0.000000
RightUpLeg 4.566317 -10.118732 -4.706867
RightLeg -3.569499 -0.000000 0.000000
RightFoot -17.699254 -17.349328 10.777693
RightToeBase 5.455535 -0.000000 -0.000000
797
root -1.355729 31.791594 -6.436123 5.103272 16.646745 4.871565
Spine -7.254542 3.632984 -1.623884
Head 10.516410 -4.672538 -0.257491
LeftShoulder -8.684865 16.529349 4.532723
LeftArm 27.086433 42.224254 -68.054350
LeftForeArm -2.084416 -0.000000 14.194962
LeftHand -10.391002 0.000000 -5.175412
LeftHandThumb1 -26.253704 0.000000 33.147579
RightShoulder 11.269291 26.997550 -15.055857
RightArm 29.350711 -17.890395 107.351258
RightForeArm 30.552183 -0.000000 93.672755
RightHand -5.234456 -0.000000 11.823670
RightHandThumb1 -24.326973 -0.000000 -32.862282
LeftUpLeg -1.525733 -6.829700 -1.794322
LeftLeg 1.995221 -0.000000 -0.000000
LeftFoot -16.213098 13.214832 -24.033008
LeftToeBase 8.542159 -0.000000 -0.000000
RightUpLeg 4.521458 -10.074223 -4.697003
RightLeg -3.572794 -0.000000 0.000000
RightFoot -17.678912 -17.338989 10.774400
RightToeBase 5.427915 -0.000000 -0.000000
798
root -1.358755 31.792017 -6.439933 5.125655 16.591076 4.865070
Spine -7.233712 3.486978 -1.560304
Head 10.429772 -4.631858 -0.284265
LeftShoulder -8.722823 16.592339 4.511595
LeftArm 27.048403 42.157645 -68.097989
LeftForeArm -2.137687 -0.000000 14.149241
LeftHand -10.428323 0.000000 -5.204195
LeftHandThumb1 -26.253704 0.000000 33.147579
RightShoulder 11.224714 27.042601 -15.303399
RightArm 30.183327 -19.642162 106.444922
RightForeArm 30.288549 -0.000000 92.968354
RightHand -5.386324 -0.000000 11.638986
RightHandThumb1 -24.326973 -0.000000 -32.862282
LeftUpLeg -1.549862 -6.805540 -1.786735
LeftLeg 1.986368 -0.000000 -0.000000
LeftFoot -16.218990 13.248421 -24.039693
LeftToeBase 8.541711 -0.000000 -0.000000
RightUpLeg 4.472197 -10.051289 -4.686372
RightLeg -3.561743 -0.000000 0.000000
RightFoot -17.667333 -17.300823 10.782471
RightToeBase 5.386367 -0.000000 -0.000000
